<svg width="20.000000" height="20.000000" viewBox="0 0 20 20" fill="none" xmlns="http://www.w3.org/2000/svg" xmlns:xlink="http://www.w3.org/1999/xlink">
	<desc>
			Created with Pixso.
	</desc>
	<defs/>
	<path id="Vector" d="M16 16C16.5305 16 17.0391 16.2109 17.4143 16.5859C17.7893 16.9609 18 17.4697 18 18C18 18.5303 17.7893 19.0391 17.4143 19.4141C17.0391 19.7891 16.5305 20 16 20C15.4695 20 14.9609 19.7891 14.5857 19.4141C14.2107 19.0391 14 18.5303 14 18C14 16.8901 14.8899 16 16 16ZM0 0L3.27002 0L4.20996 2L19 2C19.2651 2 19.5195 2.10547 19.707 2.29297C19.8945 2.48047 20 2.73486 20 3C20 3.16992 19.95 3.33984 19.8799 3.5L16.3 9.97021C15.96 10.5801 15.3 11 14.55 11L7.1001 11L6.19995 12.6299L6.16992 12.75C6.16992 12.8164 6.19629 12.8799 6.24316 12.9268C6.29004 12.9736 6.35376 13 6.41992 13L18 13L18 15L6 15C5.46948 15 4.96094 14.7891 4.58569 14.4141C4.21069 14.0391 4 13.5303 4 13C4 12.6499 4.09009 12.3198 4.23999 12.04L5.6001 9.58984L2 2L0 2L0 0ZM6 16C6.53052 16 7.03906 16.2109 7.41431 16.5859C7.78931 16.9609 8 17.4697 8 18C8 18.5303 7.78931 19.0391 7.41431 19.4141C7.03906 19.7891 6.53052 20 6 20C5.46948 20 4.96094 19.7891 4.58569 19.4141C4.21069 19.0391 4 18.5303 4 18C4 16.8901 4.88989 16 6 16ZM15 9L17.78 4L5.13989 4L7.5 9L15 9Z" fill="#191411" fill-opacity="1.000000" fill-rule="nonzero"/>
</svg>
